<svg xmlns="http://www.w3.org/2000/svg" width="474.859" height="39.83" viewBox="0 0 474.859 39.83">
  <g transform="translate(-182.9 -273.319)">
    <path d="M182.9,312.184V274.661h27v6.818H189.986v10.252h18.842v6.549H189.986v13.9Z" fill="#161615"></path>
    <path d="M241.461,305.1H221.814l-3.22,7.086h-7.677l16.856-37.577h7.73l16.855,37.577h-7.73Zm-9.823-22.6-6.979,16h13.957Z" fill="#161615"></path>
    <path d="M278.174,283.68c-1.288-2.148-4.831-4.188-8.911-4.188-5.261,0-7.784,2.2-7.784,4.992,0,3.275,3.866,4.188,8.375,4.724,7.837.967,15.138,3.007,15.138,11.971,0,8.375-7.408,11.97-15.783,11.97-7.676,0-13.581-2.361-16.372-9.232l5.9-3.06c1.664,4.133,6.012,5.958,10.575,5.958,4.455,0,8.642-1.556,8.642-5.636,0-3.543-3.7-4.992-8.7-5.529-7.676-.913-14.762-2.953-14.762-11.38,0-7.73,7.623-10.9,14.548-10.951,5.851,0,11.917,1.664,14.762,7.461Z" fill="#161615"></path><path d="M316.068,312.237V297.046H297.6v15.191h-7.086V274.661H297.6V290.5h18.465V274.661H323.1v37.576Z" fill="#161615"></path><path d="M329.806,312.184V274.607h7.032v37.577Z" fill="#a3a3a3"></path><path d="M368.186,274.554h7.086v37.63h-4.4v.053l-19.754-25.39v25.337H344.03V274.607h5.744l18.412,23.3Z" fill="#a3a3a3"></path><path d="M406.456,274.554h7.086v37.63h-4.4v.053l-19.754-25.39v25.337H382.3V274.607h5.744l18.412,23.3Z" fill="#a3a3a3"></path><path d="M457.5,293.61c-.107,9.716-6.066,19.433-19.272,19.433s-19.325-9.5-19.325-19.379,6.335-19.809,19.325-19.809C451.167,273.855,457.608,283.787,457.5,293.61Zm-31.618.161c.161,6.173,3.489,12.776,12.346,12.776s12.186-6.656,12.293-12.829c.108-6.335-3.435-13.42-12.293-13.42S425.722,287.437,425.883,293.771Z" fill="#a3a3a3"></path><path d="M481.385,312.345H474.03l-15.621-37.738h7.945l11.327,29.256,11.38-29.256h7.944Z" fill="#a3a3a3"></path><path d="M528.028,305.1H508.381l-3.221,7.086h-7.676l16.856-37.577h7.729l16.857,37.577H531.2Zm-9.823-22.6-6.978,16h13.957Z" fill="#a3a3a3"></path><path d="M545.686,281.049H533.769v-6.442h30.919v6.442H552.771v31.135h-7.085Z" fill="#a3a3a3"></path><path d="M569.032,312.184V274.607h7.032v37.577Z" fill="#161615"></path><path d="M620.778,293.61c-.107,9.716-6.066,19.433-19.271,19.433s-19.325-9.5-19.325-19.379,6.335-19.809,19.325-19.809C614.444,273.855,620.886,283.787,620.778,293.61Zm-31.618.161c.161,6.173,3.489,12.776,12.347,12.776s12.185-6.656,12.293-12.829c.107-6.335-3.436-13.42-12.293-13.42S589,287.437,589.16,293.771Z" fill="#161615"></path><path d="M650.673,274.554h7.086v37.63h-4.4v.053L633.6,286.847v25.337h-7.086V274.607h5.744l18.412,23.3Z" fill="#161615"></path>
  </g>
</svg>